<svg xmlns="http://www.w3.org/2000/svg" xmlns:xlink="http://www.w3.org/1999/xlink" width="258" height="78" viewBox="0 0 258 78"><defs><style>.a{fill:none;}.b{fill:#fffffe;}.c{clip-path:url(#a);}</style><clipPath id="a"><path class="a" d="M0,6.7V33.334C0,57.5,21.386,69.058,22.3,69.54l1.5.792.548.293.545-.293,1.5-.8c.909-.478,22.159-12.081,22.159-36.2V6.777S39.229,0,24.472,0A46.618,46.618,0,0,0,0,6.7" transform="translate(0 0.375)"/></clipPath></defs><path class="b" d="M16,1.768c-3.865.381-4.291.715-4.291,5.395v15.5c0,6.611-.741,10.123-5.083,13.975A14.8,14.8,0,0,1,.74,40L0,38.122A8.38,8.38,0,0,0,4.982,31.24a52.046,52.046,0,0,0,.58-9.4V7.163c0-4.68-.479-5.014-4.611-5.395V0H16V1.768" transform="translate(55 13)"/><path class="b" d="M37,1.739c-3.058.158-4.342,1.134-4.558,3.2a48.736,48.736,0,0,0-.43,7.968V18.27c0,6.02-.913,10.63-3.969,13.88A13.562,13.562,0,0,1,18.229,36a14.535,14.535,0,0,1-9.113-2.713c-3.111-2.44-4.558-6.449-4.558-12.795V7.429c0-4.986-.485-5.315-4.558-5.689V0H15.279V1.739c-4.019.32-4.5.648-4.5,5.689V19.41c0,8.349,3.057,13.171,9.224,13.171,6.863,0,9.49-5.474,9.49-14.527V12.9a47.947,47.947,0,0,0-.481-8.022c-.271-2.007-1.5-2.93-5.205-3.141V0H37V1.739" transform="translate(74 13)"/><path class="b" d="M13.316,36H0V34.23c4.3-.327,4.849-.65,4.849-5.425V7.2c0-4.714-.493-5.04-4.368-5.424V0H16.139a30.473,30.473,0,0,1,8.847,1.118,14.956,14.956,0,0,1,6.379,3.652A16.458,16.458,0,0,1,36,16.562a20.407,20.407,0,0,1-1.793,8.708A17.029,17.029,0,0,1,29.34,31.4C25.537,34.453,20.146,36,13.316,36ZM15.335,2.106a6.766,6.766,0,0,0-3.669.72c-.439.51-.587,1.293-.587,3.1V28.413c0,2.1.324,3.384,1.051,4.174s1.913,1.144,3.844,1.144a11.678,11.678,0,0,0,9.571-4.514c2.238-2.872,3.42-6.9,3.42-11.66a20.184,20.184,0,0,0-1.243-7.3,11.8,11.8,0,0,0-3.6-5.1,10.975,10.975,0,0,0-3.875-2.3A15.071,15.071,0,0,0,15.335,2.106Z" transform="translate(114 13)"/><path class="b" d="M19.613,9.415c-1.04-3.43-2.9-7.35-7.429-7.35A5.385,5.385,0,0,0,6.552,7.673c0,3.376,2.242,5.114,6.887,7.452C18.626,17.682,23,20.565,23,26.229,23,32.268,17.863,37,10.1,37A17.291,17.291,0,0,1,4.7,36.182,19.728,19.728,0,0,1,1.581,35.04,66.906,66.906,0,0,1,0,26.062l1.853-.487c.989,3.372,3.933,9.3,9.289,9.3,3.662,0,5.9-2.4,5.9-6.038,0-3.483-2.622-5.5-6.717-7.672C5.461,18.717.984,15.835.984,10.285.984,4.573,5.517,0,13.058,0a24.287,24.287,0,0,1,7.318,1.363c.222,1.96.548,4.3,1.04,7.668l-1.8.385" transform="translate(154 12)"/><path class="b" d="M17.839,37A17.591,17.591,0,0,1,5.054,31.769,18.6,18.6,0,0,1,0,18.689a20.127,20.127,0,0,1,1.219-6.942A18.279,18.279,0,0,1,4.785,5.769a16.917,16.917,0,0,1,5.779-4.19A19.32,19.32,0,0,1,18.422,0h.051A17.341,17.341,0,0,1,30.805,5,17.153,17.153,0,0,1,34.6,10.711,19.4,19.4,0,0,1,36,18.088a21.312,21.312,0,0,1-1.44,7.921,17.282,17.282,0,0,1-3.914,5.949A18.033,18.033,0,0,1,17.839,37Zm-.43-34.822a8.775,8.775,0,0,0-7.182,4C8.253,8.953,7.21,12.866,7.21,17.492a22.9,22.9,0,0,0,3.158,12.26,11.742,11.742,0,0,0,3.67,3.71,9.068,9.068,0,0,0,4.817,1.36,8.027,8.027,0,0,0,3.828-.951,9.293,9.293,0,0,0,3.163-2.852c1.927-2.7,2.945-6.642,2.945-11.4,0-5.32-1.12-9.776-3.239-12.887A10.745,10.745,0,0,0,21.961,3.34a9.063,9.063,0,0,0-4.494-1.162Z" transform="translate(181 12)"/><path class="b" d="M38,1.75c-2.912.159-4.1.872-4.375,3.326a71.243,71.243,0,0,0-.431,9.106V36H30.927L8.261,8.294H8.154V21.11a84.931,84.931,0,0,0,.371,8.944c.278,2.564,1.357,3.435,5.19,3.655v1.743H.7V33.709c3.022-.22,4.311-1.037,4.53-3.49a68.132,68.132,0,0,0,.488-9.11V9.492c0-3.761-.107-4.475-1.079-5.726C3.558,2.4,2.375,1.963,0,1.75V0H9.233L30.548,25.2h.167V14.182c0-4.854-.276-7.418-.376-9-.274-2.4-1.46-3.218-5.346-3.432V0H38V1.75" transform="translate(220 13)"/><path class="b" d="M3.277,0V10.324c0,3.461,1.452,5.077,3.67,5.077,2.359,0,3.776-1.6,3.776-5.077V0H14V10.116C14,15.572,11.159,18,6.829,18,2.7,18,0,15.705,0,10.135V0H3.277" transform="translate(58 56)"/><path class="b" d="M0,18V0H3.685L8.241,7.724a50.149,50.149,0,0,1,3,6.033l.065-.019c-.227-2.389-.289-4.705-.289-7.459V0H14V18H10.66L6.054,10.08a62.642,62.642,0,0,1-3.161-6.21l-.084.017c.128,2.339.17,4.715.17,7.673V18H0" transform="translate(83 56)"/><path class="b" d="M0,18H3V0H0Z" transform="translate(107 56)"/><path class="b" d="M5.894,18,0,0H3.629L6.113,8.185c.7,2.269,1.31,4.374,1.783,6.552h.059c.48-2.125,1.14-4.318,1.849-6.5L12.463,0H16L9.705,18H5.894" transform="translate(119 56)"/><path class="b" d="M10.191,10.015H3.328v5.279H11V18H0V0H10.6V2.7H3.328V7.332h6.863v2.683" transform="translate(144 56)"/><path class="b" d="M3.326,18H0V.384A31.577,31.577,0,0,1,5.082,0c2.693,0,4.44.444,5.663,1.44a4.423,4.423,0,0,1,1.584,3.587A4.766,4.766,0,0,1,8.992,9.49v.075c1.231.456,2.068,1.587,2.558,3.456.082.313.162.622.24.925A28.338,28.338,0,0,0,13,18H9.555A23.04,23.04,0,0,1,8.32,13.785c-.519-2.291-1.352-3.08-3.3-3.127H3.326V18ZM5.413,2.461a9.266,9.266,0,0,0-2.086.168V8.267H5.31A4.235,4.235,0,0,0,8,7.463a2.65,2.65,0,0,0,.986-2.137C8.987,3.488,7.718,2.471,5.413,2.461Z" transform="translate(164 56)"/><path class="b" d="M.749,15.04a9.372,9.372,0,0,0,4.464,1.177c2.154,0,3.362-1.012,3.362-2.519,0-1.389-.937-2.208-3.276-3.054C2.247,9.562.3,7.931.3,5.29.3,2.271,2.829,0,6.836,0a9.869,9.869,0,0,1,4.427.909l-.809,2.717a7.989,7.989,0,0,0-3.687-.873c-2.143,0-3.052,1.137-3.052,2.22,0,1.412,1.069,2.075,3.532,3.015C10.455,9.208,12,10.815,12,13.463,12,16.427,9.762,19,5,19a10.749,10.749,0,0,1-5-1.175L.749,15.04" transform="translate(185 55)"/><path class="b" d="M0,18H3V0H0Z" transform="translate(207 56)"/><path class="b" d="M5.284,2.764H0V0H14V2.764H8.666V18H5.284V2.764" transform="translate(219 56)"/><path class="b" d="M5.71,18V10.507L0,0H3.771L5.921,4.618C6.535,5.942,7,6.962,7.495,8.185h.053c.445-1.15.964-2.258,1.565-3.578L11.284,0H15L9.007,10.414V18H5.71" transform="translate(240 56)"/><path class="b" d="M24.073,71h0l-.543-.293-1.486-.8C21.144,69.429,0,57.819,0,33.512V6.732A36.143,36.143,0,0,1,6.646,3.366,47.651,47.651,0,0,1,24.191,0a46.228,46.228,0,0,1,9.874,1.065,44.922,44.922,0,0,1,7.5,2.342A33.228,33.228,0,0,1,48,6.813v26.7a39.109,39.109,0,0,1-3.3,15.845,42.825,42.825,0,0,1-7.319,11.259A45.766,45.766,0,0,1,26.095,69.9l-1.482.806L24.074,71Zm.122-66.649A43.162,43.162,0,0,0,9.147,6.863,19.824,19.824,0,0,0,4.309,9.375V33.512A34.474,34.474,0,0,0,7.4,47.858,38.91,38.91,0,0,0,14.187,58.02a42.341,42.341,0,0,0,9.878,8.047A42.216,42.216,0,0,0,33.877,58a39.035,39.035,0,0,0,6.746-10.164A34.6,34.6,0,0,0,43.69,33.512V9.375A18.029,18.029,0,0,0,39.05,6.863,40.366,40.366,0,0,0,24.195,4.352Z" transform="translate(0 7)"/><g transform="translate(0 7)"><path class="a" d="M0,6.7V33.334C0,57.5,21.386,69.058,22.3,69.54l1.5.792.548.293.545-.293,1.5-.8c.909-.478,22.159-12.081,22.159-36.2V6.777S39.229,0,24.472,0A46.618,46.618,0,0,0,0,6.7" transform="translate(0 0.375)"/><g class="c"><path class="b" d="M16.017.021C19.11.566,20.9,1.39,20.9,2.666c-.005,1.752-3.962,2.738-9,2.722S3.388,4.38,3.395,2.623C3.4,1.351,5.174.531,8.276,0,3.467.557,0,1.234,0,3.662c-.01,2.685,5.419,4.493,12.128,4.51S24.266,6.523,24.269,3.725c.01-2.431-3.448-3.127-8.252-3.7" transform="translate(12.103 32.77)"/><path class="b" d="M10.83,36.656h0l-1.411,0,0-.093,1.421.017-.006.079Zm.348-.076h0l-.341,0c.146-1.929,1.512-19.087,4.257-27.652a.089.089,0,0,1-.026.007,12.79,12.79,0,0,1-2.283.313c-1.282.062-2.067.779-2.548,2.324a27.877,27.877,0,0,0-.727,6.148c-.381,7.637-.126,17.719-.1,18.843l-.427-.005L3.346,8.25C3.208,8.2,0,7,0,5.524c.007-1.515,2.179-2.2,2.2-2.211L1.559.455c0-.016.045-.379.25-.379A.217.217,0,0,1,1.881.09,20.407,20.407,0,0,0,6.4,1.109c.115.006.329.108.329.281s.052,2.37.058,2.621v.007s.023.275.226.3a21.139,21.139,0,0,0,2.381.125c.237,0,.382,0,.383,0s.328-.123.329-.322c.005-.553.026-1.751.066-2.332a.328.328,0,0,1,.3-.313A24.746,24.746,0,0,0,18.409.018.246.246,0,0,1,18.5,0c.208,0,.236.351.236.355l-.708,3c.248.047,2.4.514,2.4,2.22,0,1.787-3.535,2.7-3.57,2.713Z" transform="translate(14.484 41.419)"/></g></g><path class="b" d="M11.378,20.872c-2.154.161-5.145.226-5.143-.084.009-.332,3.094-1.433,4.733-1.99a66.877,66.877,0,0,0-1.69-6.486c-.153-.538-.071-.668.412-.195,1.345,1.3,2.46,4.057,3.236,6.376,1.495.05,4.2.185,4.242.509.066.443-2.765,1.26-3.633,1.573,1.564,4.85,1.308,10.689.374,15.377-.037.214.23.241.4.051,10.842-12.1,3.151-21.2,1.536-24-1.6-2.768-3.908-5.392-2.02-11.575.122-.433-.338-.477-.6-.386C8.547,1.586,3.916,7.561,2.8,11.954A15.265,15.265,0,0,0,4.874,24.473C7,27.752,7.166,29.256,7.166,29.256s-4.413-2.062-5.972-8.694c-.1-.429-.579-.333-.7.156C-2.5,32.748,9.076,37.868,9.306,37.947a.532.532,0,0,0,.557-.056c.785-1.482,3.256-7.154,1.516-17.018" transform="translate(14)"/></svg>